<?xml version="1.0" standalone="no"?>
<!DOCTYPE svg PUBLIC "-//W3C//DTD SVG 20010904//EN"
 "http://www.w3.org/TR/2001/REC-SVG-20010904/DTD/svg10.dtd">
<svg version="1.0" xmlns="http://www.w3.org/2000/svg"
 width="800.000000pt" height="800.000000pt" viewBox="0 0 800.000000 800.000000"
 preserveAspectRatio="xMidYMid meet">
<metadata>
Created by potrace 1.11, written by Peter Selinger 2001-2013
</metadata>
<g transform="translate(0.000000,800.000000) scale(0.100000,-0.100000)"
fill="#000000" stroke="none">
<path d="M2627 7036 c-86 -32 -124 -142 -83 -240 17 -41 17 -57 1 -365 -5
-102 -15 -354 -20 -561 -23 -824 -24 -4220 -1 -4560 1 -15 -9 -36 -24 -52 -51
-57 -59 -146 -19 -218 46 -81 112 -99 384 -100 61 0 126 2 145 4 19 3 58 8 85
11 246 28 543 138 780 288 44 28 82 54 85 57 3 3 24 18 48 34 143 98 348 303
474 476 267 368 453 843 533 1360 3 19 7 46 10 60 3 14 7 48 10 75 3 28 7 61
10 75 2 14 7 50 10 80 3 30 8 78 10 105 27 257 16 738 -20 975 -2 14 -9 57
-15 95 -75 493 -250 967 -492 1330 -113 171 -199 276 -333 411 -360 362 -801
590 -1270 658 -103 15 -270 16 -308 2z m443 -401 c434 -112 844 -417 1122
-832 106 -159 122 -186 191 -325 112 -226 215 -534 252 -753 3 -16 11 -68 19
-115 14 -79 19 -115 31 -230 26 -235 26 -686 0 -895 -2 -16 -7 -52 -10 -80
-23 -193 -70 -429 -115 -580 -17 -55 -32 -108 -35 -119 -13 -53 -95 -255 -144
-351 -111 -222 -223 -378 -380 -535 -286 -284 -613 -457 -961 -505 -30 -5 -75
-8 -100 -9 l-45 -1 -1 260 c-1 143 -5 395 -10 560 -10 375 -10 2273 0 2690 11
467 14 607 21 880 5 203 11 574 14 921 l1 51 45 -8 c24 -4 71 -15 105 -24z"/>
<path d="M5253 1329 c-77 -7 -127 -42 -155 -107 -40 -89 -3 -192 84 -235 55
-27 210 -26 265 2 101 51 131 167 69 262 -46 68 -126 92 -263 78z"/>
</g>
</svg>
